Patient4_TMGait_0pt5_01_right_06_GRF.mot
version=1
nRows=59
nColumns=19
inDegrees=no
endheader
time	F1x	F1y	F1z	M1x	M1y	M1z	F2x	F2y	F2z	M2x	M2y	M2z	EC1x	EC1y	EC1z	EC2x	EC2y	EC2z
7.3	4.6692	772.2327	70.6744	-299.9028	-49.7082	575.0274	11.274	-7.3544	-0.2036	-1.58	-7.2156	-4.7376	-0.0592	0.0182	-0.0073	-0.0462	0.0165	0.9585
7.314	3.3527	765.6207	68.4165	-296.0417	-48.0173	569.1999	7.3162	-4.0287	-0.1029	-0.68797	-4.7492	-2.3593	-0.0592	0.0182	-0.0073	-0.0462	0.0165	0.9585
7.328	2.3993	757.514	66.3374	-291.6788	-46.3175	561.9165	3.9511	-1.1854	-0.032542	0.080615	-2.654	-0.34539	-0.0592	0.0182	-0.0073	-0.0462	0.0165	0.9585
7.342	1.8385	748.8006	64.5827	-287.2284	-44.7298	553.8558	1.3581	1.0341	0.014397	0.68884	-1.049	1.2233	-0.0592	0.0182	-0.0073	-0.0462	0.0165	0.9585
7.356	1.64	740.5657	63.197	-283.1326	-43.3128	545.8348	-0.49142	2.6486	0.049928	1.1405	0.073198	2.3758	-0.0592	0.0182	-0.0073	-0.0462	0.0165	0.9585
7.37	1.7838	733.7869	62.1608	-279.7686	-42.0647	538.5502	-1.7029	3.7333	0.079531	1.4521	0.78551	3.1592	-0.0592	0.0182	-0.0073	-0.0462	0.0165	0.9585
7.384	2.2721	729.1885	61.4226	-277.4024	-40.9414	532.4914	-2.4268	4.3778	0.11262	1.6414	1.1776	3.6374	-0.0592	0.0182	-0.0073	-0.0462	0.0165	0.9585
7.398	3.1406	727.2005	60.9234	-276.1798	-39.8755	527.9226	-2.7862	4.6293	0.14881	1.7115	1.3366	3.832	-0.0592	0.0182	-0.0073	-0.0462	0.0165	0.9585
7.412	4.4418	727.9669	60.6061	-276.134	-38.7974	524.8977	-2.8597	4.4888	0.19065	1.6509	1.3246	3.7209	-0.0592	0.0182	-0.0073	-0.0462	0.0165	0.9585
7.426	6.2213	731.3763	60.4306	-277.1994	-37.6583	523.3032	-2.7593	3.9642	0.23429	1.4508	1.2112	3.3014	-0.0592	0.0182	-0.0073	-0.0462	0.0165	0.9585
7.44	8.5137	737.0719	60.3576	-279.2202	-36.4108	522.8635	-2.5794	3.0388	0.28189	1.0995	1.0484	2.5373	-0.0592	0.0182	-0.0073	-0.0462	0.0165	0.9585
7.454	11.309	744.4652	60.3642	-281.955	-35.0359	523.1839	-2.377	1.6656	0.32922	0.57518	0.87578	1.3763	-0.0592	0.0182	-0.0073	-0.0462	0.0165	0.9585
7.468	14.568	752.782	60.4161	-285.0956	-33.5207	523.7772	-2.1589	-0.19327	0.37679	-0.13978	0.70776	-0.21862	-0.0592	0.0182	-0.0073	-0.0462	0.0165	0.9585
7.482	18.2039	761.1107	60.4732	-288.2834	-31.872	524.1012	-1.8749	-2.524	0.41804	-1.042	0.53708	-2.2483	-0.0592	0.0182	-0.0073	-0.0462	0.0165	0.9585
7.496	22.0885	768.447	60.4839	-291.1238	-30.1052	523.5889	-1.4491	-5.1953	0.43798	-2.0825	0.34373	-4.5849	-0.0592	0.0182	-0.0073	-0.0462	0.0165	0.9585
7.51	26.0689	773.736	60.392	-293.2006	-28.2454	521.6704	-0.76132	-7.8925	0.41759	-3.1374	0.093678	-6.9473	-0.0592	0.0182	-0.0073	-0.0462	0.0165	0.9585
7.524	29.9712	775.9515	60.1685	-294.1048	-26.3462	517.8234	0.3192	-9.9911	0.32256	-3.9637	-0.23488	-8.7952	-0.0592	0.0182	-0.0073	-0.0462	0.0165	0.9585
7.538	33.6566	774.277	59.8006	-293.5051	-24.4612	511.6606	1.9157	-10.469	0.11931	-4.1623	-0.65732	-9.2409	-0.0592	0.0182	-0.0073	-0.0462	0.0165	0.9585
7.552	37.0435	768.29	59.3008	-291.2164	-22.6388	503.0297	4.1076	-7.8447	-0.2392	-3.1525	-1.1566	-7.0032	-0.0592	0.0182	-0.0073	-0.0462	0.0165	0.9585
7.566	40.1105	757.9972	58.6896	-287.2158	-20.9076	492.0287	6.8534	-0.15735	-0.78625	-0.16557	-1.6797	-0.37504	-0.0592	0.0182	-0.0073	-0.0462	0.0165	0.9585
7.58	42.8735	743.6527	57.9773	-281.5825	-19.2767	478.8826	9.9304	14.9066	-1.5485	5.7089	-2.1048	12.6564	-0.0592	0.0182	-0.0073	-0.0462	0.0165	0.9585
7.594	45.3271	725.524	57.1226	-274.4092	-17.7237	463.8215	12.8144	39.7218	-2.5107	15.4099	-2.2307	34.1716	-0.0592	0.0182	-0.0073	-0.0462	0.0165	0.9585
7.608	47.4167	703.6583	56.0251	-265.7187	-16.2073	446.9305	14.5766	76.1637	-3.6017	29.6859	-1.7515	65.8131	-0.0592	0.0182	-0.0073	-0.0462	0.0165	0.9585
7.622	48.9994	677.7664	54.5365	-255.4259	-14.6917	428.0853	13.884	124.7512	-4.655	48.761	-0.29756	108.0344	-0.0592	0.0182	-0.0073	-0.0462	0.0165	0.9585
7.636	49.8627	647.3776	52.466	-243.3952	-13.1386	407.041	9.2239	183.6007	-5.4147	71.9208	2.4658	159.219	-0.0592	0.0182	-0.0073	-0.0462	0.0165	0.9585
7.65	49.8034	612.2198	49.6245	-229.5827	-11.5083	383.6357	0.41186	248.2157	-5.7993	97.3963	6.5093	215.506	-0.0592	0.0182	-0.0073	-0.0462	0.0165	0.9585
7.664	48.7187	572.5946	45.9024	-214.1653	-9.7656	358.003	-10.5853	312.5667	-6.3286	122.779	11.51	271.5528	-0.0592	0.0182	-0.0073	-0.0462	0.0165	0.9585
7.678	46.6464	529.3121	41.3777	-197.4981	-7.9306	330.5289	-21.6247	371.829	-7.2982	146.1303	16.8649	322.9508	-0.0592	0.0182	-0.0073	-0.0462	0.0165	0.9585
7.692	43.7013	483.2404	36.3212	-179.9332	-6.101	301.6144	-31.3719	423.7987	-8.7501	166.5475	22.0656	367.6624	-0.0592	0.0182	-0.0073	-0.0462	0.0165	0.9585
7.706	39.9974	435.0099	31.1299	-161.7023	-4.4508	271.5441	-39.2181	468.0155	-10.5734	183.8335	26.7598	405.2978	-0.0592	0.0182	-0.0073	-0.0462	0.0165	0.9585
7.72	35.6148	385.105	26.144	-142.9653	-3.1329	240.5374	-45.1318	505.2933	-12.6711	198.2937	30.8429	436.6151	-0.0592	0.0182	-0.0073	-0.0462	0.0165	0.9585
7.734	30.6159	334.1026	21.5927	-123.9084	-2.2539	208.9103	-49.2765	537.4929	-14.9713	210.636	34.3126	463.2309	-0.0592	0.0182	-0.0073	-0.0462	0.0165	0.9585
7.748	25.0651	282.8456	17.5832	-104.8177	-1.8565	177.1619	-51.9388	567.0456	-17.5951	221.77	37.3876	487.2345	-0.0592	0.0182	-0.0073	-0.0462	0.0165	0.9585
7.762	19.0678	232.5492	14.1639	-86.121	-1.9495	146.0244	-53.5664	596.0502	-20.7804	232.4602	40.4399	510.4744	-0.0592	0.0182	-0.0073	-0.0462	0.0165	0.9585
7.776	12.8485	184.7561	11.3444	-68.3706	-2.4759	116.4268	-54.678	625.6251	-24.8453	243.0894	43.9355	533.9788	-0.0592	0.0182	-0.0073	-0.0462	0.0165	0.9585
7.79	6.8157	141.1407	9.1137	-52.1698	-3.297	89.3719	-55.7357	655.8132	-29.9651	253.6419	48.1987	557.8568	-0.0592	0.0182	-0.0073	-0.0462	0.0165	0.9585
7.804	1.507	103.1207	7.396	-38.0396	-4.1765	65.7116	-56.9496	685.7755	-36.0033	263.7992	53.1994	581.4211	-0.0592	0.0182	-0.0073	-0.0462	0.0165	0.9585
7.818	-2.6036	71.4645	6.048	-26.2732	-4.85	45.9145	-58.2458	714.0033	-42.5417	273.029	58.568	603.3665	-0.0592	0.0182	-0.0073	-0.0462	0.0165	0.9585
7.832	-5.2599	46.2781	4.8991	-16.9228	-5.1092	30.062	-59.3816	738.6615	-48.964	280.7092	63.7153	622.0998	-0.0592	0.0182	-0.0073	-0.0462	0.0165	0.9585
7.846	-6.4378	27.1899	3.822	-9.8552	-4.8611	17.9658	-60.0491	758.0409	-54.6335	286.2856	68.0199	636.1338	-0.0592	0.0182	-0.0073	-0.0462	0.0165	0.9585
7.86	-6.3271	13.5456	2.7686	-4.8232	-4.1465	9.2579	-60.0051	770.9303	-59.0277	289.3893	70.9819	644.4403	-0.0592	0.0182	-0.0073	-0.0462	0.0165	0.9585
7.874	-5.3605	4.5579	1.7846	-1.5248	-3.1551	3.4692	-59.1047	776.7952	-61.8669	289.888	72.3416	646.5935	-0.0592	0.0182	-0.0073	-0.0462	0.0165	0.9585
7.888	-4.0629	-0.66976	0.9801	0.38314	-2.1535	0.065355	-57.3192	775.8725	-63.1098	287.9186	72.0696	642.8376	-0.0592	0.0182	-0.0073	-0.0462	0.0165	0.9585
7.902	-2.766	-3.1422	0.3848	1.2746	-1.2853	-1.5791	-54.7444	769.2192	-62.9415	283.9041	70.36	634.104	-0.0592	0.0182	-0.0073	-0.0462	0.0165	0.9585
7.916	-1.6529	-3.7915	-0.0090001	1.4933	-0.61569	-2.0499	-51.5456	758.5914	-61.6931	278.5157	67.5499	621.8782	-0.0592	0.0182	-0.0073	-0.0462	0.0165	0.9585
7.93	-0.7998	-3.3761	-0.24045	1.3184	-0.14615	-1.8272	-47.9528	746.1445	-59.7813	272.5641	64.068	607.9535	-0.0592	0.0182	-0.0073	-0.0462	0.0165	0.9585
7.944	-0.20514	-2.4572	-0.34257	0.95603	0.14202	-1.275	-44.2217	734.0978	-57.6239	266.8768	60.3503	594.1489	-0.0592	0.0182	-0.0073	-0.0462	0.0165	0.9585
7.958	0.16038	-1.4043	-0.35991	0.54172	0.29103	-0.62186	-40.5853	724.4111	-55.5914	262.1825	56.7863	582.0413	-0.0592	0.0182	-0.0073	-0.0462	0.0165	0.9585
7.972	0.3555	-0.43952	-0.31748	0.15891	0.33413	-0.025941	-37.235	718.544	-53.9571	259.0228	53.6724	572.792	-0.0592	0.0182	-0.0073	-0.0462	0.0165	0.9585
7.986	0.43453	0.3369	-0.24744	-0.15414	0.31128	0.44399	-34.3006	717.3176	-52.8544	257.7026	51.1691	567.0382	-0.0592	0.0182	-0.0073	-0.0462	0.0165	0.9585
8	0.44255	0.90596	-0.16687	-0.38874	0.25014	0.78869	-31.8366	720.9063	-52.2858	258.2862	49.307	564.8948	-0.0592	0.0182	-0.0073	-0.0462	0.0165	0.9585
8.014	0.42429	1.292	-0.0969	-0.55157	0.18192	1.0165	-29.8272	728.9211	-52.1406	260.6311	47.9941	566.0427	-0.0592	0.0182	-0.0073	-0.0462	0.0165	0.9585
8.028	0.39518	1.5423	-0.041232	-0.65764	0.11261	1.1643	-28.2015	740.5237	-52.2659	264.4278	47.0873	569.8185	-0.0592	0.0182	-0.0073	-0.0462	0.0165	0.9585
8.042	0.36386	1.6968	-0.0049871	-0.72266	0.053463	1.2577	-26.8544	754.5429	-52.481	269.2414	46.4105	575.3112	-0.0592	0.0182	-0.0073	-0.0462	0.0165	0.9585
8.056	0.33164	1.7847	0.021314	-0.75874	0.0043337	1.3123	-25.6708	769.6005	-52.6318	274.5565	45.8021	581.4739	-0.0592	0.0182	-0.0073	-0.0462	0.0165	0.9585
8.07	0.28853	1.8291	0.034592	-0.77391	-0.027378	1.3459	-24.5187	784.212	-52.592	279.8129	45.11	587.1932	-0.0592	0.0182	-0.0073	-0.0462	0.0165	0.9585
8.084	0.23675	1.8328	0.043378	-0.76913	-0.047577	1.3526	-23.273	796.8853	-52.3071	284.4426	44.2371	591.3707	-0.0592	0.0182	-0.0073	-0.0462	0.0165	0.9585
8.098	0.16769	1.7841	0.04407	-0.73979	-0.059391	1.3236	-21.8324	806.2093	-51.7719	287.9032	43.1299	592.9933	-0.0592	0.0182	-0.0073	-0.0462	0.0165	0.9585
8.112	0.072961	1.6395	0.040919	-0.67297	-0.071753	1.2167	-20.1263	810.9937	-51.0291	289.7339	41.7816	591.2318	-0.0592	0.0182	-0.0073	-0.0462	0.0165	0.9585
